<svg xmlns="http://www.w3.org/2000/svg" viewBox="0 0 1600 1000" width="1600" height="1000" role="img" aria-label="Placeholder image modeling-03-cover.jpg, 1600 by 1000 pixels"><rect width="1600" height="1000" fill="#143056"/><defs><pattern id="g" width="40" height="40" patternUnits="userSpaceOnUse"><path d="M40 0H0V40" fill="none" stroke="#4fd1ff" stroke-opacity=".10"/></pattern><pattern id="m" width="16" height="16" patternUnits="userSpaceOnUse"><path d="M16 0H0V16" fill="none" stroke="#4fd1ff" stroke-opacity=".16"/></pattern></defs><rect width="1600" height="1000" fill="url(#g)"/><rect x="12" y="12" width="1576" height="976" fill="none" stroke="#4fd1ff" stroke-width="2"/><rect x="30" y="30" width="1540" height="940" fill="none" stroke="#eaf2fb" stroke-opacity=".35"/><path d="M-18 12H12M12 -18V12" stroke="#4fd1ff" stroke-width="3" fill="none"/><path d="M-18 988H12M12 1018V988" stroke="#4fd1ff" stroke-width="3" fill="none"/><path d="M1618 12H1588M1588 -18V12" stroke="#4fd1ff" stroke-width="3" fill="none"/><path d="M1618 988H1588M1588 1018V988" stroke="#4fd1ff" stroke-width="3" fill="none"/><path d="M30 30L1570 970M1570 30L30 970" stroke="#4fd1ff" stroke-opacity=".55" stroke-width="2" fill="none"/><rect x="115" y="414" width="1369" height="173" fill="#0a1424" stroke="#4fd1ff" stroke-width="2"/><text x="800" y="478" text-anchor="middle" font-family="ui-monospace,SFMono-Regular,Menlo,Consolas,monospace" font-size="48" font-weight="700" fill="#eaf2fb">modeling-03-cover.jpg</text><text x="800" y="529" text-anchor="middle" font-family="ui-monospace,SFMono-Regular,Menlo,Consolas,monospace" font-size="38" fill="#4fd1ff">1600x1000 px</text><text x="800" y="572" text-anchor="middle" font-family="ui-monospace,SFMono-Regular,Menlo,Consolas,monospace" font-size="30" letter-spacing="2" fill="#ff6a1f">FINISHED RENDER / PHOTO (shown on hover)</text><text x="52" y="954" font-family="ui-monospace,SFMono-Regular,Menlo,Consolas,monospace" font-size="29" fill="#4fd1ff" letter-spacing="2">REV A</text><text x="1548" y="954" text-anchor="end" font-family="ui-monospace,SFMono-Regular,Menlo,Consolas,monospace" font-size="29" fill="#4fd1ff" letter-spacing="2">PLACEHOLDER</text></svg>
